<?xml version="1.0" standalone="no"?>
<!DOCTYPE svg PUBLIC "-//W3C//DTD SVG 20010904//EN"
 "http://www.w3.org/TR/2001/REC-SVG-20010904/DTD/svg10.dtd">
<svg version="1.0" xmlns="http://www.w3.org/2000/svg"
 width="343.000000pt" height="364.000000pt" viewBox="0 0 343.000000 364.000000"
 preserveAspectRatio="xMidYMid meet">

<g transform="translate(0.000000,364.000000) scale(0.100000,-0.100000)"
fill="#000000" stroke="none">
<path d="M1670 3304 c-172 -22 -371 -76 -507 -139 -164 -76 -362 -220 -481
-350 l-51 -56 -162 81 c-88 45 -163 80 -165 78 -2 -2 14 -31 35 -64 21 -32
151 -239 288 -459 303 -484 512 -818 517 -822 2 -2 72 72 156 164 85 92 197
215 250 273 53 58 134 147 181 199 l84 93 65 -69 c36 -37 154 -166 263 -286
109 -119 212 -224 230 -233 38 -20 122 -21 169 -1 19 8 50 34 69 57 80 101
124 141 183 170 67 33 142 50 217 50 61 0 209 -46 209 -65 0 -8 -13 -33 -29
-57 -15 -24 -126 -200 -246 -393 -283 -454 -290 -464 -331 -481 -45 -19 -138
-18 -180 2 -29 14 -141 135 -456 490 -21 23 -38 49 -38 58 0 8 21 88 46 176
25 88 44 164 42 168 -1 5 -50 -44 -108 -108 -58 -64 -188 -209 -290 -321 -165
-183 -435 -485 -517 -578 l-30 -35 -25 40 c-14 21 -103 165 -199 319 -96 154
-260 416 -364 583 -119 191 -191 298 -196 290 -36 -68 -47 -450 -15 -598 71
-340 199 -588 421 -815 213 -218 495 -374 788 -435 288 -60 590 -40 852 57 39
14 122 52 185 85 749 383 1054 1297 687 2058 -73 152 -170 284 -306 420 -231
231 -478 363 -801 430 -102 21 -352 35 -440 24z"/>
</g>
</svg>
